<svg width="20" height="28" viewBox="0 0 20 28" fill="none" xmlns="http://www.w3.org/2000/svg">
<path fill-rule="evenodd" clip-rule="evenodd" d="M10 28C10 28 20 18.0495 20 10.5C20 7.71523 18.9464 5.04451 17.0711 3.07538C15.1957 1.10625 12.6522 0 10 0C7.34784 0 4.8043 1.10625 2.92893 3.07538C1.05357 5.04451 3.95203e-08 7.71523 0 10.5C0 18.0495 10 28 10 28ZM10 15.75C11.3261 15.75 12.5979 15.1969 13.5355 14.2123C14.4732 13.2277 15 11.8924 15 10.5C15 9.10761 14.4732 7.77226 13.5355 6.78769C12.5979 5.80312 11.3261 5.25 10 5.25C8.67392 5.25 7.40215 5.80312 6.46447 6.78769C5.52678 7.77226 5 9.10761 5 10.5C5 11.8924 5.52678 13.2277 6.46447 14.2123C7.40215 15.1969 8.67392 15.75 10 15.75Z" fill="#444444"/>
</svg>
