<svg width="39" height="42" viewBox="0 0 39 42" fill="none" xmlns="http://www.w3.org/2000/svg">
<path d="M31.5088 30.0323V39.7097C31.5088 40.4194 30.9246 41 30.2105 41H2.29825C1.58421 41 1 40.4194 1 39.7097V2.29032C1 1.58065 1.58421 1 2.29825 1H19.1105L31.5088 12.6774V22.2903" fill="white" fill-opacity="0.01"/>
<path d="M31.5088 30.0323V39.7097C31.5088 40.4194 30.9246 41 30.2105 41H2.29825C1.58421 41 1 40.4194 1 39.7097V2.29032C1 1.58065 1.58421 1 2.29825 1H19.1105L31.5088 12.6774V22.2903" stroke="#222222" stroke-opacity="0.3"/>
<path d="M31.5087 13.1935H20.4737C19.7596 13.1935 19.1754 12.6129 19.1754 11.9032V1.64514" fill="white" fill-opacity="0.01"/>
<path d="M31.5087 13.1935H20.4737C19.7596 13.1935 19.1754 12.6129 19.1754 11.9032V1.64514" stroke="#222222" stroke-opacity="0.3"/>
<path d="M6.84216 11.9678H15.2808H6.84216Z" fill="white" fill-opacity="0.01"/>
<path d="M6.84216 11.9678H15.2808" stroke="#222222" stroke-opacity="0.3"/>
<path d="M6.84216 18.4193H26.965H6.84216Z" fill="white" fill-opacity="0.01"/>
<path d="M6.84216 18.4193H26.965" stroke="#222222" stroke-opacity="0.3"/>
<path d="M6.84216 22.9354H26.965H6.84216Z" fill="white" fill-opacity="0.01"/>
<path d="M6.84216 22.9354H26.965" stroke="#222222" stroke-opacity="0.3"/>
<path d="M6.84216 28.7419H22.4211H6.84216Z" fill="white" fill-opacity="0.01"/>
<path d="M6.84216 28.7419H22.4211" stroke="#222222" stroke-opacity="0.3"/>
<path d="M6.84216 32.6129H17.8772H6.84216Z" fill="white" fill-opacity="0.01"/>
<path d="M6.84216 32.6129H17.8772" stroke="#222222" stroke-opacity="0.3"/>
<path d="M18.5264 39.0646L21.0579 33L34.2351 19.9033C34.4948 19.6452 34.9492 19.6452 35.2737 19.9033L37.8053 22.4194C38.065 22.6775 38.065 23.1291 37.8053 23.4517L24.6281 36.5484L18.5264 39.0646Z" fill="white" fill-opacity="0.01" stroke="#222222" stroke-opacity="0.3"/>
<path d="M32.7421 21.4515L36.2474 24.9354L32.7421 21.4515Z" fill="white" fill-opacity="0.01"/>
<path d="M32.7421 21.4515L36.2474 24.9354" stroke="#222222" stroke-opacity="0.3"/>
</svg>
