<svg width="27" height="34" viewBox="0 0 27 34" fill="none" xmlns="http://www.w3.org/2000/svg">
<path d="M23.3721 11.9608C20.5135 8.80369 18.8148 6.02445 17.8929 4.24884C16.8946 2.3256 16.5674 1.13301 16.5649 1.12352L16.2677 0L15.2064 0.473412C15.0823 0.528708 12.1498 1.86603 10.5067 5.15223C9.68189 6.80196 9.51692 8.63873 9.52384 9.88899C9.52786 10.6166 9.01233 11.2484 8.2981 11.3912C7.79733 11.4913 7.2822 11.3356 6.92077 10.9741L4.94375 8.99713L4.26365 9.93492C4.19307 10.0323 2.53102 12.3245 2.22844 12.7824C0.750864 15.0191 -0.0195913 17.6246 0.000378569 20.3173C0.0271369 23.9135 1.44137 27.2828 3.98256 29.8045C6.52361 32.326 9.90366 33.7147 13.5001 33.7147C20.944 33.7146 27 27.6586 27 20.2147C27.0001 17.5158 25.6777 14.5074 23.3721 11.9608ZM13.5002 31.7375C10.4289 31.7375 7.54353 30.5526 5.37538 28.401C3.20716 26.2494 2.00053 23.3733 1.97766 20.3026C1.96053 18.0039 2.61775 15.7803 3.87823 13.8724C4.03212 13.6394 4.64947 12.7782 5.18537 12.0349L5.52274 12.3723C6.35265 13.2022 7.53489 13.5603 8.68603 13.3301C10.3263 13.002 11.5103 11.5503 11.5011 9.87818C11.4954 8.84337 11.6251 7.33692 12.2753 6.03644C13.0667 4.45368 14.2498 3.41927 15.0719 2.84403C15.8155 4.7353 17.7004 8.64261 21.9064 13.288C22.8434 14.3229 25.0228 17.0695 25.0228 20.2148C25.0228 26.5684 19.8537 31.7375 13.5002 31.7375Z" fill="black"/>
<path d="M15.5039 16.7736L9.30469 25.8519H11.4964L17.6957 16.7736H15.5039Z" fill="black"/>
<path d="M16.8268 20.9237C15.4521 20.9237 14.4146 21.8445 14.4146 23.4527C14.4146 25.0738 15.4521 25.9816 16.8268 25.9816C18.2016 25.9816 19.2391 25.0738 19.2391 23.4527C19.2391 21.8445 18.2015 20.9237 16.8268 20.9237ZM16.8268 24.581C16.5415 24.581 16.2562 24.3215 16.2562 23.4526C16.2562 22.5837 16.5415 22.3243 16.8268 22.3243C17.1121 22.3243 17.3974 22.5837 17.3974 23.4526C17.3974 24.3215 17.1121 24.581 16.8268 24.581Z" fill="black"/>
<path d="M12.5858 19.1729C12.5858 17.5647 11.5483 16.644 10.1735 16.644C8.79874 16.644 7.76123 17.5647 7.76123 19.1729C7.76123 20.794 8.79874 21.7019 10.1735 21.7019C11.5483 21.7019 12.5858 20.794 12.5858 19.1729ZM9.60288 19.1729C9.60288 18.304 9.88819 18.0445 10.1735 18.0445C10.4588 18.0445 10.7441 18.304 10.7441 19.1729C10.7441 20.0418 10.4588 20.3012 10.1735 20.3012C9.88819 20.3012 9.60288 20.0418 9.60288 19.1729Z" fill="black"/>
</svg>
