<svg width="19" height="19" viewBox="0 0 19 19" fill="none" xmlns="http://www.w3.org/2000/svg">
<path d="M18.047 8.548C18.0247 10.8955 17.4212 12.732 16.166 14.3278C14.8183 16.0422 13.0632 17.1307 10.9157 17.5714C9.25688 17.9083 7.64253 17.7602 6.0578 17.1863C5.70604 17.0567 5.3617 16.9049 5.03216 16.7234C4.93219 16.6679 4.84703 16.6605 4.73595 16.6975C3.23638 17.1826 1.73311 17.6639 0.229832 18.1416C0.163184 18.1638 0.0743208 18.2267 0.0224838 18.1786C-0.0367585 18.1193 0.0372944 18.0305 0.0595102 17.9601C0.359425 17.0678 0.659339 16.1718 0.962956 15.2794C1.14809 14.7351 1.32581 14.1945 1.51835 13.654C1.57019 13.5133 1.55168 13.4059 1.47392 13.2763C1.09255 12.6246 0.811147 11.9285 0.611204 11.1991C0.237237 9.82912 0.196508 8.44433 0.489017 7.05954C0.807445 5.54886 1.47392 4.2011 2.49955 3.03847C3.73994 1.63146 5.26913 0.702098 7.08713 0.254078C8.24606 -0.0310253 9.41609 -0.0754571 10.5935 0.117081C12.1338 0.36886 13.5223 0.979797 14.7331 1.9647C15.992 2.99033 16.9102 4.26404 17.4879 5.79324C17.8063 6.61893 18.0581 7.97039 18.047 8.548ZM2.2811 15.9422C3.19935 15.646 4.07688 15.3646 4.947 15.0795C5.06178 15.0424 5.15435 15.0498 5.25432 15.1165C5.58756 15.3387 5.94672 15.5164 6.31698 15.6719C7.52034 16.1829 8.77183 16.368 10.0641 16.2014C11.6488 15.9977 13.041 15.3609 14.211 14.2538C15.6847 12.8579 16.4733 11.1473 16.5437 9.12562C16.6103 7.1447 15.9735 5.40446 14.6442 3.9271C13.3816 2.5238 11.7969 1.72403 9.92706 1.52409C8.3016 1.35006 6.77981 1.70181 5.37281 2.54602C4.16945 3.27173 3.24749 4.26034 2.60693 5.50813C1.89972 6.88181 1.65905 8.34066 1.8627 9.86985C2.01451 11.0251 2.4292 12.0877 3.09568 13.043C3.16973 13.1504 3.19195 13.2393 3.14752 13.3651C3.01052 13.7428 2.88833 14.1242 2.75874 14.5019C2.60323 14.9684 2.45142 15.4349 2.2811 15.9422Z" fill="#444444"/>
<path d="M4.73961 6.80415C4.75812 5.92292 5.06914 5.26756 5.65787 4.74548C5.8467 4.57516 6.07997 4.50111 6.34285 4.53813C6.45393 4.55295 6.56501 4.56405 6.67609 4.55665C6.88344 4.54554 7.02414 4.64551 7.09449 4.82694C7.34257 5.4712 7.58324 6.11546 7.82391 6.76343C7.90537 6.98558 7.76467 7.15961 7.64619 7.31882C7.50919 7.50766 7.34257 7.67428 7.17965 7.84089C7.01303 8.01122 6.99082 8.10749 7.1056 8.31483C7.77578 9.533 8.71625 10.4698 9.99366 11.0474C10.0381 11.0659 10.0825 11.0918 10.127 11.114C10.2973 11.1918 10.4491 11.1733 10.5787 11.0252C10.8157 10.7475 11.0748 10.492 11.2933 10.1995C11.4377 10.0069 11.5377 9.97362 11.7561 10.0699C12.4078 10.3513 13.0187 10.7067 13.6408 11.0511C13.7556 11.114 13.7963 11.2103 13.7926 11.3436C13.7593 12.4359 13.1335 13.0061 12.0338 13.2579C11.5006 13.3801 11.0082 13.2468 10.5194 13.069C9.49381 12.6988 8.5052 12.2619 7.67581 11.5287C7.01674 10.9437 6.43542 10.292 5.94297 9.56263C5.5653 8.99982 5.17282 8.44813 4.95436 7.79276C4.82847 7.44471 4.73591 7.08926 4.73961 6.80415Z" fill="#444444"/>
</svg>
