<svg width="35" height="35" viewBox="0 0 35 35" fill="none" xmlns="http://www.w3.org/2000/svg">
<path d="M34.3164 12.8516H27.6855C27.308 12.8516 27.002 13.1576 27.002 13.5352C27.002 13.9127 27.308 14.2188 27.6855 14.2188H33.6328V19.9609H15.5859V14.2188H21.5332C21.9108 14.2188 22.2168 13.9127 22.2168 13.5352C22.2168 13.1576 21.9108 12.8516 21.5332 12.8516H11.9551C12.6502 11.8048 13.0719 10.6042 13.1837 9.33987H13.5947C13.9723 9.33987 14.2783 9.03358 14.2783 8.65627C14.2783 8.27869 13.9723 7.97268 13.5947 7.97268H13.2145V7.51953C13.2145 7.14195 12.9084 6.83594 12.5309 6.83594H3.05508C2.6775 6.83594 2.37148 7.14195 2.37148 7.51953V7.97268H1.99123C1.61366 7.97268 1.30764 8.27869 1.30764 8.65627C1.30764 9.03358 1.61366 9.33987 1.99123 9.33987H2.40139C2.51247 10.604 2.93278 11.8048 3.62598 12.8516H0.683594C0.306015 12.8516 0 13.1576 0 13.5352V34.3164C0 34.694 0.306015 35 0.683594 35H34.3164C34.694 35 35 34.694 35 34.3164V13.5352C35 13.1576 34.694 12.8516 34.3164 12.8516ZM3.73867 8.66322V8.20312H11.8473V8.65627C11.8473 10.2219 11.2734 11.7012 10.2259 12.8516H5.35366C4.31011 11.702 3.73867 10.2256 3.73867 8.66322ZM5.0602 14.2188H14.2188V19.9609H1.36719V14.2188H5.0602ZM1.36719 21.3281H14.2188V33.6328H1.36719V21.3281ZM15.5859 21.3281H23.9258V33.6328H15.5859V21.3281ZM25.293 33.6328V21.3281H33.6328V33.6328H25.293Z" fill="black"/>
<path d="M23.584 17.0898C23.584 17.4674 23.89 17.7734 24.2676 17.7734H24.9512C25.3288 17.7734 25.6348 17.4674 25.6348 17.0898C25.6348 16.7123 25.3288 16.4062 24.9512 16.4062H24.2676C23.89 16.4062 23.584 16.7123 23.584 17.0898Z" fill="black"/>
<path d="M4.51221 17.7734C4.69192 17.7734 4.86842 17.7003 4.99553 17.5732C5.12263 17.4461 5.1958 17.2696 5.1958 17.0898C5.1958 16.9101 5.12263 16.7336 4.99553 16.6065C4.86842 16.4794 4.69192 16.4062 4.51221 16.4062C4.33223 16.4062 4.15599 16.4794 4.02888 16.6065C3.90178 16.7336 3.82861 16.9101 3.82861 17.0898C3.82861 17.2696 3.90178 17.4461 4.02888 17.5732C4.15599 17.7003 4.33223 17.7734 4.51221 17.7734Z" fill="black"/>
<path d="M7.79346 17.7734C7.97317 17.7734 8.14967 17.7003 8.27678 17.5732C8.40388 17.4461 8.47705 17.2696 8.47705 17.0898C8.47705 16.9101 8.40388 16.7336 8.27678 16.6065C8.14967 16.4794 7.97317 16.4062 7.79346 16.4062C7.61295 16.4062 7.43724 16.4794 7.31013 16.6065C7.18303 16.7336 7.10986 16.9101 7.10986 17.0898C7.10986 17.2696 7.18303 17.4461 7.31013 17.5732C7.43724 17.7003 7.61348 17.7734 7.79346 17.7734Z" fill="black"/>
<path d="M11.0747 17.7734C11.2544 17.7734 11.4309 17.7003 11.558 17.5732C11.6851 17.4461 11.7583 17.2696 11.7583 17.0898C11.7583 16.9101 11.6851 16.7336 11.558 16.6065C11.4309 16.4794 11.2544 16.4062 11.0747 16.4062C10.8942 16.4062 10.7185 16.4794 10.5914 16.6065C10.4635 16.7336 10.3911 16.9101 10.3911 17.0898C10.3911 17.2696 10.4635 17.4461 10.5914 17.5732C10.7185 17.7003 10.8942 17.7734 11.0747 17.7734Z" fill="black"/>
<path d="M27.6538 26.4551C27.2762 26.4551 26.9702 26.7611 26.9702 27.1387V27.8223C26.9702 28.1998 27.2762 28.5059 27.6538 28.5059C28.0314 28.5059 28.3374 28.1998 28.3374 27.8223V27.1387C28.3374 26.7611 28.0314 26.4551 27.6538 26.4551Z" fill="black"/>
<path d="M21.5649 26.4551C21.1874 26.4551 20.8813 26.7611 20.8813 27.1387V27.8223C20.8813 28.1998 21.1874 28.5059 21.5649 28.5059C21.9425 28.5059 22.2485 28.1998 22.2485 27.8223V27.1387C22.2485 26.7611 21.9425 26.4551 21.5649 26.4551Z" fill="black"/>
<path d="M12.168 22.4219H3.41797C3.04039 22.4219 2.73438 22.7279 2.73438 23.1055V31.8555C2.73438 32.233 3.04039 32.5391 3.41797 32.5391H12.168C12.5455 32.5391 12.8516 32.233 12.8516 31.8555V23.1055C12.8516 22.7279 12.5455 22.4219 12.168 22.4219ZM7.25491 23.7891L4.10156 26.9424V23.7891H7.25491ZM4.10156 28.8757L9.18819 23.7891H11.4844V24.7912L5.10372 31.1719H4.10156V28.8757ZM7.03728 31.1719L11.4844 26.7248V31.1719H7.03728Z" fill="black"/>
<path d="M17.4912 2.73438H25.4209V6.3916C24.4721 6.68427 23.7803 7.56947 23.7803 8.61301C23.7803 9.89475 24.823 10.9372 26.1045 10.9372C27.3862 10.9372 28.4287 9.89475 28.4287 8.61301C28.4287 7.56947 27.7371 6.68427 26.7881 6.3916V2.73438H31.9834V6.3916C31.0346 6.68427 30.3428 7.56947 30.3428 8.61301C30.3428 9.89475 31.3855 10.9372 32.667 10.9372C33.9487 10.9372 34.9912 9.89475 34.9912 8.61301C34.9912 7.56947 34.2996 6.68427 33.3506 6.3916V2.73438H34.3076C34.6852 2.73438 34.9912 2.42836 34.9912 2.05078C34.9912 1.6732 34.6852 1.36719 34.3076 1.36719H33.3506V0.683594C33.3506 0.306015 33.0446 0 32.667 0C32.2897 0 31.9834 0.306015 31.9834 0.683594V1.36719H26.7881V0.683594C26.7881 0.306015 26.4821 0 26.1045 0C25.7272 0 25.4209 0.306015 25.4209 0.683594V1.36719H17.4912C17.1139 1.36719 16.8076 1.6732 16.8076 2.05078C16.8076 2.42836 17.1139 2.73438 17.4912 2.73438ZM26.1045 9.57005C25.5768 9.57005 25.1475 9.14093 25.1475 8.61301C25.1475 8.08537 25.5768 7.65598 26.1045 7.65598C26.6324 7.65598 27.0615 8.08537 27.0615 8.61301C27.0615 9.14093 26.6324 9.57005 26.1045 9.57005ZM32.667 9.57005C32.1393 9.57005 31.71 9.14093 31.71 8.61301C31.71 8.08537 32.1393 7.65598 32.667 7.65598C33.1949 7.65598 33.624 8.08537 33.624 8.61301C33.624 9.14093 33.1949 9.57005 32.667 9.57005Z" fill="black"/>
<path d="M25.0932 14.0185C25.2203 13.8914 25.2935 13.7149 25.2935 13.5352C25.2935 13.3554 25.2203 13.1789 25.0932 13.0518C24.9661 12.9247 24.7896 12.8516 24.6099 12.8516C24.4294 12.8516 24.2536 12.9247 24.1265 13.0518C23.9994 13.1789 23.9263 13.3554 23.9263 13.5352C23.9263 13.7149 23.9994 13.8914 24.1265 14.0185C24.2536 14.1456 24.4294 14.2188 24.6099 14.2188C24.7896 14.2188 24.9661 14.1456 25.0932 14.0185Z" fill="black"/>
</svg>
