<svg width="40" height="40" viewBox="0 0 40 40" fill="none" xmlns="http://www.w3.org/2000/svg">
<path d="M12.3573 35.9818L18.9583 34.9189L20.2679 36.2271L0.603852 39.3962L3.7754 19.7341L5.08333 21.0421L4.01806 27.6451L3.89689 28.3961L4.63438 28.2094C6.61022 27.7092 8.75419 28.2485 10.2519 29.7479L10.2524 29.7484C11.754 31.2478 12.291 33.3923 11.793 35.3658L11.607 36.1026L12.3573 35.9818ZM27.3224 34.9543H22.9216V30.1629L34.6974 18.3854L39.2929 22.9808L27.3224 34.9543ZM9.74162 17.1783H5.14613V12.5828L17.0215 0.707163L21.6168 5.30385L9.74162 17.1783ZM18.5821 26.019H13.9865V21.4208L25.8594 9.54645L30.4549 14.1432L18.5821 26.019Z" stroke="black" stroke-opacity="0.3"/>
</svg>
