<svg width="55" height="41" viewBox="0 0 55 41" fill="none" xmlns="http://www.w3.org/2000/svg">
<path d="M2.27692 28.2634V32.8191" stroke="#222222" stroke-opacity="0.3"/>
<path d="M4.55381 30.5406H0" stroke="#222222" stroke-opacity="0.3"/>
<path d="M5.21259 38.4568V41" stroke="#222222" stroke-opacity="0.3"/>
<path d="M6.48334 39.7284H3.94183" stroke="#222222" stroke-opacity="0.3"/>
<path d="M51.0338 11.7807L52.7499 7.56055" stroke="#222222" stroke-opacity="0.3"/>
<path d="M49.7827 8.8114L54 10.5286" stroke="#222222" stroke-opacity="0.3"/>
<path d="M47.9588 3.35467L48.9159 1" stroke="#222222" stroke-opacity="0.3"/>
<path d="M47.2608 1.69836L49.6139 2.65614" stroke="#222222" stroke-opacity="0.3"/>
<path d="M42.2605 2.09937H11.4945V10.9351H42.2605V2.09937Z" fill="white" fill-opacity="0.01" stroke="#222222" stroke-opacity="0.3"/>
<path d="M42.2605 10.9362H11.4945V39.7283H42.2605V10.9362Z" fill="white" fill-opacity="0.01" stroke="#222222" stroke-opacity="0.3"/>
<path d="M16.1137 19.2108H22.364" stroke="#222222" stroke-opacity="0.3"/>
<path d="M31.5969 19.2108H38.3241" stroke="#222222" stroke-opacity="0.3"/>
<path d="M16.7463 33.0262H21.7314" stroke="#222222" stroke-opacity="0.3"/>
<path d="M19.2388 16.0836V22.3381" stroke="#222222" stroke-opacity="0.3"/>
<path d="M32.8806 30.5408L37.8471 35.5116" stroke="#222222" stroke-opacity="0.3"/>
<path d="M37.8471 30.5408L32.8806 35.5116" stroke="#222222" stroke-opacity="0.3"/>
<path d="M19.2388 31.4669C19.75 31.4669 20.1644 31.0522 20.1644 30.5407C20.1644 30.0292 19.75 29.6145 19.2388 29.6145C18.7276 29.6145 18.3132 30.0292 18.3132 30.5407C18.3132 31.0522 18.7276 31.4669 19.2388 31.4669Z" fill="white" fill-opacity="0.01" stroke="#222222" stroke-opacity="0.3"/>
<path d="M19.2388 36.477C19.75 36.477 20.1644 36.0623 20.1644 35.5508C20.1644 35.0393 19.75 34.6246 19.2388 34.6246C18.7276 34.6246 18.3132 35.0393 18.3132 35.5508C18.3132 36.0623 18.7276 36.477 19.2388 36.477Z" fill="white" fill-opacity="0.01" stroke="#222222" stroke-opacity="0.3"/>
<path d="M26.8776 39.7283V10.9362" stroke="#222222" stroke-opacity="0.3"/>
<path d="M11.4945 26.2793H42.2605" stroke="#222222" stroke-opacity="0.3"/>
</svg>
