<svg width="38" height="34" viewBox="0 0 38 34" fill="none" xmlns="http://www.w3.org/2000/svg">
<path d="M23.5273 9.20703H22.4141V19.7832L30.8712 26.1261L31.5395 25.2373C32.8527 23.4907 33.5469 21.4122 33.5469 19.2266C33.5469 13.7018 29.0521 9.20703 23.5273 9.20703ZM30.3653 22.9635L24.6406 18.6699V11.5129C28.4122 12.0547 31.3203 15.3074 31.3203 19.2266C31.3203 20.5503 30.9927 21.8236 30.3653 22.9635Z" fill="black"/>
<path d="M37.5994 8.94897L36.174 7.23845L33.8938 9.13853C31.9332 7.12423 29.3927 5.67756 26.5446 5.07112C26.7512 4.63731 26.8672 4.15229 26.8672 3.64062C26.8672 1.79904 25.3689 0.300781 23.5273 0.300781C21.6858 0.300781 20.1875 1.79904 20.1875 3.64062C20.1875 4.15229 20.3035 4.63731 20.5101 5.07119C17.6619 5.67763 15.1215 7.1243 13.1608 9.1386L10.8806 7.23853L9.45517 8.94905L11.7332 10.8474C11.1126 11.7185 10.5863 12.6612 10.1686 13.6602H0V15.8861H9.44441C9.27296 16.6098 9.15518 17.3534 9.09714 18.1134H2.22656V20.3399H9.09707C9.15518 21.0999 9.27289 21.8435 9.44434 22.5665H4.45312V24.793H10.1686C12.354 30.0182 17.5186 33.6992 23.5273 33.6992C31.5076 33.6992 38 27.2068 38 19.2266C38 16.1063 37.0073 13.2135 35.3214 10.8473L37.5994 8.94897ZM23.5273 2.52734C24.1412 2.52734 24.6406 3.02676 24.6406 3.64062C24.6406 4.25449 24.1412 4.75391 23.5273 4.75391C22.9135 4.75391 22.4141 4.25449 22.4141 3.64062C22.4141 3.02676 22.9135 2.52734 23.5273 2.52734ZM35.7734 19.2266C35.7734 25.9791 30.2798 31.4727 23.5273 31.4727C16.7748 31.4727 11.2812 25.9791 11.2812 19.2266C11.2812 12.4741 16.7748 6.98047 23.5273 6.98047C30.2798 6.98047 35.7734 12.4741 35.7734 19.2266Z" fill="black"/>
</svg>
