<svg width="30" height="30" viewBox="0 0 30 30" fill="none" xmlns="http://www.w3.org/2000/svg">
<path fill-rule="evenodd" clip-rule="evenodd" d="M15 0C23.2843 0 30 6.71575 30 15C30 23.2843 23.2843 30 15 30C6.71575 30 0 23.2843 0 15C0 6.71575 6.71575 0 15 0ZM18.9963 13.099C18.9234 12.5063 18.7412 12.0409 18.4177 11.6287C17.9976 11.0979 17.4607 10.7801 16.6659 10.5915C16.148 10.4658 15.9387 10.4802 15.7514 10.6514C15.5769 10.8117 15.5428 11.1331 15.6761 11.3412C15.7699 11.4923 15.8781 11.5464 16.179 11.6055C16.5797 11.6792 16.8566 11.7749 17.1085 11.9189C17.6431 12.2276 17.8921 12.7107 17.9188 13.4928C17.9312 13.86 17.963 13.9729 18.0912 14.1031C18.3289 14.3413 18.752 14.2949 18.9315 14.01C18.9973 13.9026 19.0074 13.8559 19.0143 13.6066C19.0189 13.4522 19.0123 13.2224 18.9963 13.099ZM19.0034 9.46262C20.2746 10.4905 20.9848 11.9514 21.0904 13.7673C21.1348 14.4825 21.0758 14.7154 20.8235 14.8481C20.5958 14.9711 20.3378 14.9306 20.1608 14.7455C20.0436 14.6251 19.9986 14.4604 20.0003 14.1689C20.0054 13.3628 19.8197 12.4626 19.5177 11.8379C19.1683 11.1109 18.6281 10.4923 17.9485 10.0399C17.3532 9.64263 16.5654 9.37431 15.8016 9.3075C15.3061 9.26412 15.1292 9.18019 15.0341 8.94269C14.9752 8.80063 14.9908 8.555 15.0599 8.445C15.1251 8.3435 15.2717 8.23137 15.3753 8.20169C15.4851 8.16969 16.1251 8.22563 16.4727 8.29475C17.4216 8.48788 18.2872 8.885 19.0034 9.46262ZM23.4076 20.7602C23.3721 20.6564 23.2892 20.4963 23.2301 20.4044C22.857 19.8411 20.8528 18.2726 19.8522 17.7597C19.2808 17.4662 18.8575 17.3684 18.5437 17.4602C18.2062 17.5552 18.0286 17.7123 17.4631 18.4149C17.2352 18.6966 17.0013 18.9605 16.9391 19.002C16.7852 19.1088 16.4833 19.1947 16.2701 19.1947C15.7757 19.1917 14.8787 18.8716 14.1889 18.4505C13.6531 18.1244 12.9663 17.5403 12.4393 16.9622C11.8176 16.2832 11.3942 15.6843 11.0597 15.0083C10.6275 14.1396 10.518 13.6088 10.6986 13.2204C10.7429 13.1226 10.8022 13.0188 10.8288 12.9862C10.8554 12.9566 11.1338 12.7282 11.4416 12.4792C12.0456 11.9989 12.1433 11.8892 12.2557 11.5601C12.3978 11.142 12.3594 10.7151 12.1403 10.2852C11.9715 9.959 11.5304 9.24744 11.2107 8.78788C10.7874 8.18306 9.73344 6.89037 9.52325 6.71537C9.14431 6.40706 8.65881 6.35369 8.12294 6.56125C7.55756 6.78069 6.49769 7.63456 6.04473 8.2305C5.63619 8.77013 5.47933 9.15256 5.45563 9.65662C5.43492 10.0717 5.47043 10.2436 5.68951 10.7744C7.40363 14.9371 9.96137 18.2608 13.4754 20.8996C15.3109 22.2783 17.2144 23.3278 19.1891 24.0454C20.3406 24.4634 20.8409 24.4841 21.4301 24.1403C21.6788 23.9919 22.2945 23.3604 22.6379 22.9009C23.2063 22.1359 23.4166 21.7831 23.4757 21.5014C23.5172 21.3088 23.4846 20.9737 23.4076 20.7602ZM22.6507 11.3753C23.0113 12.3147 23.1842 13.1572 23.2222 14.1843C23.2282 14.3873 23.2254 14.759 23.2122 15.0109C23.1849 15.4936 23.1587 15.5895 23.0197 15.7172C22.7963 15.9269 22.3609 15.8769 22.1957 15.6243C22.1095 15.4887 22.0974 15.3895 22.1141 14.8255C22.162 13.1571 21.8246 11.8507 21.0117 10.5444C20.0403 8.97731 18.5874 7.92156 16.698 7.40512C16.2162 7.27362 15.8101 7.1935 15.1786 7.1085C14.7673 7.05469 14.6772 7.03188 14.5756 6.96938C14.2689 6.77294 14.2649 6.27556 14.5706 6.07611C14.7284 5.97084 14.8448 5.96614 15.359 6.032C16.867 6.22044 18.2126 6.66856 19.3183 7.34569C20.1108 7.83163 20.6106 8.26825 21.2539 9.03288C21.9344 9.84838 22.2947 10.4514 22.6507 11.3753Z" fill="#222222"/>
</svg>
