<svg width="32" height="32" viewBox="0 0 32 32" fill="none" xmlns="http://www.w3.org/2000/svg">
<path d="M15.9986 5.68991C10.3136 5.68991 5.68848 10.315 5.68848 16C5.68848 21.685 10.3136 26.3101 15.9986 26.3101C21.6835 26.3101 26.3086 21.685 26.3086 16C26.3086 10.315 21.6836 5.68991 15.9986 5.68991ZM15.9986 24.4355C11.3472 24.4355 7.56304 20.6513 7.56304 16C7.56304 11.3486 11.3472 7.56447 15.9986 7.56447C20.6499 7.56447 24.4341 11.3486 24.4341 16C24.4341 20.6513 20.65 24.4355 15.9986 24.4355Z" fill="black"/>
<path d="M20.0224 12.5254L15.0614 17.4863L11.975 14.3999C11.6091 14.0339 11.0156 14.0339 10.6495 14.3999C10.2835 14.766 10.2835 15.3594 10.6495 15.7254L14.3987 19.4746C14.5817 19.6576 14.8216 19.7491 15.0614 19.7491C15.3012 19.7491 15.5411 19.6576 15.7241 19.4746L21.3478 13.8509C21.7138 13.4848 21.7138 12.8914 21.3478 12.5254C20.9819 12.1593 20.3884 12.1593 20.0224 12.5254Z" fill="black"/>
<path d="M30.6579 9.42856C30.6547 9.42663 27.3843 7.46896 27.3843 7.46896L26.6501 4.42855C26.3244 3.07943 25.0839 2.1777 23.6999 2.28505L19.973 2.57348C19.973 2.57348 17.8262 0.678802 17.8219 0.675241C16.7654 -0.224673 15.2317 -0.224673 14.1752 0.675241C14.171 0.678802 12.0242 2.57348 12.0242 2.57348L8.2973 2.28505C6.92443 2.17845 5.69341 3.06443 5.35536 4.39493L4.33335 7.65142C4.33335 7.65142 1.34611 9.42613 1.34218 9.42856C0.159765 10.1553 -0.314186 11.6139 0.215315 12.8968L1.49052 15.987L0.215315 19.0772C-0.314186 20.3601 0.159766 21.8187 1.34224 22.5454C1.34586 22.5477 4.60997 24.4926 4.60997 24.4926L5.34717 27.5454C5.65535 28.822 6.78246 29.6977 8.07504 29.6976C8.27274 29.6976 8.05067 29.7051 11.9855 29.4035C11.9855 29.4035 14.1718 31.3221 14.1753 31.325C14.7035 31.775 15.3511 32 15.9987 32C16.6462 32 17.2938 31.775 17.8221 31.325C17.8256 31.322 20.0119 29.4035 20.0119 29.4035L23.6999 29.6889C25.0835 29.7959 26.3245 28.8946 26.6502 27.5454L27.3843 24.505C31.3863 22.1094 30.5378 22.6195 30.6579 22.5454C31.8403 21.8187 32.3142 20.3601 31.7847 19.0771L30.5095 15.9869L31.7847 12.8967C32.3142 11.6139 31.8403 10.1553 30.6579 9.42856ZM28.6291 16.3446L30.0519 19.7923C30.2278 20.2186 30.0714 20.7031 29.6801 20.9461L26.0841 23.0987C25.8683 23.2278 25.7135 23.4383 25.6544 23.6828L24.8279 27.1056C24.7194 27.5553 24.3065 27.8556 23.8445 27.8201L19.7627 27.5041C19.5114 27.4847 19.262 27.5676 19.0722 27.7341L16.602 29.9018C16.2514 30.1969 15.7458 30.1969 15.3952 29.9017L12.9251 27.7341C12.7353 27.5676 12.4859 27.4845 12.2346 27.5041L8.15283 27.8201C7.69125 27.8557 7.27797 27.5553 7.16944 27.1055L6.33969 23.6693C6.28052 23.4242 6.12499 23.2132 5.90836 23.0841L2.31926 20.9456C1.92848 20.7024 1.77239 20.2183 1.94822 19.7923L3.37101 16.3445C3.46555 16.1155 3.46555 15.8584 3.37101 15.6294L1.94803 12.1817C1.77233 11.7559 1.92823 11.2721 2.31857 11.0288L5.59905 9.0799C5.79751 8.96199 5.94547 8.77503 6.01458 8.55477C7.22355 4.70024 7.15531 4.92649 7.16931 4.86845C7.27785 4.4188 7.69 4.118 8.15271 4.15399L12.2749 4.47304C12.5278 4.49253 12.7774 4.40893 12.9674 4.24128L15.3961 2.09778C15.7462 1.80373 16.2508 1.80373 16.601 2.09766L19.0298 4.24128C19.2198 4.40905 19.47 4.49253 19.7223 4.47304L23.8445 4.15399C24.3055 4.11837 24.7193 4.41874 24.8279 4.86851L25.6544 8.29121C25.7134 8.53571 25.8682 8.74622 26.0841 8.87544L29.68 11.0279C30.0714 11.2709 30.2278 11.7554 30.0518 12.1817L28.629 15.6294C28.5346 15.8585 28.5346 16.1156 28.6291 16.3446Z" fill="black"/>
</svg>
