<svg width="20" height="22" viewBox="0 0 20 22" fill="none" xmlns="http://www.w3.org/2000/svg">
<path d="M12.2422 1H8.36494C4.30389 1 1 4.30335 1 8.36343V11.8561C1 14.8796 2.858 17.597 5.65178 18.7039V20.9681C5.65178 21.1214 5.74207 21.2603 5.88232 21.3224C5.93267 21.3447 5.98625 21.3557 6.03943 21.3557C6.13371 21.3557 6.22702 21.3213 6.2997 21.2554L8.5474 19.2195H12.2422C16.3032 19.2195 19.6071 15.9161 19.6071 11.8561V8.36343C19.6071 4.30335 16.3032 1 12.2422 1ZM18.8318 11.8561C18.8318 15.4888 15.8758 18.4442 12.2422 18.4442H8.39789C8.30171 18.4442 8.20899 18.4798 8.13762 18.5445L6.42708 20.094V18.4351C6.42708 18.2708 6.32354 18.1243 6.16852 18.0698C3.54092 17.1408 1.7753 14.6438 1.7753 11.8561V8.36343C1.7753 4.73073 4.73131 1.7753 8.36494 1.7753H12.2422C15.8758 1.7753 18.8318 4.73073 18.8318 8.36343V11.8561Z" fill="#444444" stroke="#444444" stroke-width="0.5"/>
<path d="M15.4268 12.8206L13.0441 11.273C12.7835 11.1038 12.4736 11.0462 12.1698 11.1091C11.8658 11.1731 11.6048 11.3525 11.4352 11.6141L11.3232 11.7863C10.2919 11.4456 9.15492 11.0102 8.47428 9.03983L8.7561 8.79491H8.7563C9.23993 8.37431 9.29083 7.6384 8.87007 7.15384L7.00622 5.00964C6.86574 4.84803 6.62082 4.83136 6.45917 4.97141L5.28905 5.9886C4.26236 6.88089 4.74219 8.20095 4.89989 8.63477C4.90687 8.65408 4.9154 8.67265 4.92544 8.69079C4.96614 8.76386 5.93809 10.4981 7.50741 12.0967C9.0832 13.7018 11.9283 15.1843 12.0155 15.2274C12.3405 15.4383 12.7061 15.5394 13.0676 15.5394C13.7024 15.5394 14.3251 15.2282 14.6963 14.6573L15.5407 13.357C15.6573 13.1772 15.6062 12.9371 15.4268 12.8206ZM14.0462 14.2349C13.6967 14.7728 12.9752 14.9257 12.4051 14.5582C12.3767 14.5434 9.55051 13.0715 8.0607 11.5539C6.66834 10.1354 5.74388 8.55984 5.61762 8.33989C5.31041 7.47904 5.36476 6.94978 5.79745 6.57388L6.67532 5.81106L8.2848 7.66263C8.42769 7.82691 8.41125 8.06729 8.24751 8.20964L7.77186 8.62303C7.656 8.72374 7.61037 8.8831 7.65561 9.02963C8.46669 11.6648 10.0436 12.1823 11.195 12.5605L11.3627 12.6157C11.5304 12.6725 11.7144 12.6078 11.8103 12.4594L12.0854 12.0362C12.1422 11.9487 12.2289 11.8893 12.3296 11.8681C12.4306 11.8465 12.534 11.8666 12.6216 11.9234L14.6793 13.2597L14.0462 14.2349Z" fill="#444444" stroke="#444444" stroke-width="0.5"/>
<path d="M11.1883 7.29819C10.9819 7.23872 10.7677 7.35874 10.7092 7.56505C10.6507 7.771 10.7701 7.98526 10.9759 8.04395C11.5536 8.20823 12.0135 8.66934 12.1765 9.2474C12.2246 9.41812 12.3802 9.52981 12.5494 9.52981C12.5842 9.52981 12.6196 9.52527 12.6548 9.51542C12.8608 9.45712 12.9808 9.24322 12.9226 9.03691C12.6874 8.2018 12.0226 7.53555 11.1883 7.29819Z" fill="#444444" stroke="#444444" stroke-width="0.5"/>
<path d="M14.1385 9.61305C14.1734 9.61305 14.2087 9.60852 14.244 9.59867C14.4501 9.54037 14.5699 9.32611 14.5118 9.12019C14.0545 7.49878 12.7638 6.20523 11.1435 5.74416C10.9376 5.68474 10.7231 5.80549 10.6647 6.01106C10.6062 6.21698 10.7256 6.43123 10.9315 6.48992C12.2947 6.87757 13.3808 7.96632 13.7657 9.33065C13.8139 9.50141 13.9693 9.61305 14.1385 9.61305Z" fill="#444444" stroke="#444444" stroke-width="0.5"/>
<path d="M10.9766 3.93929C10.7703 3.87986 10.5561 3.99988 10.4976 4.20618C10.4391 4.41214 10.5585 4.62639 10.7643 4.68508C13.0744 5.34226 14.9144 7.18662 15.5663 9.49813C15.6144 9.66885 15.77 9.78053 15.9392 9.78053C15.974 9.78053 16.0095 9.776 16.0447 9.76615C16.2506 9.70785 16.3706 9.49359 16.3125 9.28764C15.5881 6.71908 13.5435 4.66993 10.9766 3.93929Z" fill="#444444" stroke="#444444" stroke-width="0.5"/>
</svg>
