<svg width="58" height="41" viewBox="0 0 58 41" fill="none" xmlns="http://www.w3.org/2000/svg">
<path d="M27.1554 38.6284C27.0987 38.8592 26.9975 39.0764 26.8576 39.2675C26.7178 39.4587 26.542 39.6201 26.3404 39.7424C26.1387 39.8648 25.9152 39.9457 25.6826 39.9805C25.45 40.0153 25.2129 40.0034 24.9849 39.9454L18.2414 38.2406C17.6943 38.1014 17.1872 37.8342 16.7609 37.4606L11.7153 33.0249C11.357 32.71 11.1371 32.264 11.104 31.785C11.0708 31.3061 11.2272 30.8335 11.5386 30.4711C11.85 30.1087 12.291 29.8863 12.7646 29.8528C13.2381 29.8193 13.7054 29.9774 14.0637 30.2923L19.1097 34.7282L25.8532 36.4332C26.0812 36.4909 26.2958 36.5934 26.4847 36.7349C26.6735 36.8764 26.833 37.0542 26.9539 37.258C27.0749 37.4619 27.1549 37.6878 27.1895 37.9229C27.224 38.1581 27.2125 38.3978 27.1554 38.6284ZM56.8238 17.0762C56.6788 17.5343 56.4443 17.9583 56.1343 18.3231C55.8243 18.6878 55.445 18.9859 55.019 19.1997L49.813 21.8323L46.4688 25.7889C46.4571 25.8027 46.4443 25.8154 46.4323 25.8288C46.4213 25.8411 46.4104 25.8532 46.3991 25.8651C46.3906 25.8741 46.3827 25.8838 46.374 25.8926L38.141 34.2193C37.466 34.8977 36.553 35.2784 35.6014 35.2782C35.3114 35.2783 35.0225 35.2423 34.7412 35.1712L21.7738 31.8926C21.2871 31.7703 20.8315 31.5453 20.4369 31.2324L8.34851 21.6726L2.97873 18.9572C2.55355 18.7421 2.17499 18.4436 1.86511 18.079C1.55524 17.7144 1.32027 17.291 1.1739 16.8336C1.02754 16.3762 0.972725 15.8939 1.01265 15.4148C1.05257 14.9357 1.18643 14.4695 1.40643 14.0433L6.90883 3.38617C7.34666 2.54814 8.09055 1.91597 8.98222 1.62417C9.87389 1.33237 10.843 1.40398 11.6832 1.82376L16.6894 4.35524L27.5793 1.14449C28.3996 0.90294 29.2783 0.965753 30.0568 1.3216L37.4396 4.7001H41.106L46.3148 2.06629C47.1549 1.64619 48.1241 1.57443 49.0158 1.86628C49.9076 2.15813 50.6514 2.79053 51.0889 3.62881L56.5913 14.2857C56.8128 14.7114 56.9475 15.1778 56.9875 15.6571C57.0274 16.1365 56.9717 16.619 56.8238 17.0762ZM42.3614 24.8306L35.28 19.6221L33.4737 20.9921C31.9216 22.1601 30.0385 22.7908 28.1039 22.7908C26.1693 22.7908 24.2862 22.1601 22.7341 20.9921L21.5213 20.0722C21.111 19.761 20.7716 19.3642 20.5261 18.9088C20.2806 18.4534 20.1348 17.95 20.0984 17.4326C20.062 16.9152 20.136 16.3959 20.3153 15.91C20.4947 15.424 20.7752 14.9827 21.1378 14.6159L29.8938 5.76054C30.0218 5.6331 30.1589 5.51545 30.3041 5.40857L28.5813 4.6202L17.6799 7.83434L11.5861 19.6369L22.6421 28.3805L35.6095 31.6591L42.3614 24.8306ZM46.5416 20.1308L40.4436 8.32054H37.0586L37.0525 8.321C37.0496 8.321 37.0469 8.32057 37.0442 8.32054H32.4251L23.6693 17.1759L24.882 18.0958C25.8133 18.7966 26.9431 19.175 28.1039 19.175C29.2647 19.175 30.3946 18.7966 31.3259 18.0958L34.1897 15.9235C34.4959 15.6912 34.8677 15.5643 35.2505 15.5615C35.6332 15.5586 36.0068 15.68 36.3163 15.9077L44.8227 22.1644L46.5416 20.1308Z" fill="white" fill-opacity="0.01" stroke="#222222" stroke-opacity="0.3"/>
</svg>
