<svg width="39" height="42" viewBox="0 0 39 42" fill="none" xmlns="http://www.w3.org/2000/svg">
<path d="M37.5983 23.2364L35.3526 20.9728V18.8424C35.3526 14.4484 33.6352 10.587 30.7289 7.52446L28.7473 16.4457C28.6152 17.1114 28.0868 17.5109 27.4263 17.5109C27.2942 17.5109 27.2942 17.5109 27.1621 17.5109C26.5015 17.3777 25.9731 16.5788 26.1052 15.913L28.7473 4.0625C28.7473 3.66304 28.4831 3.13043 28.0868 2.99728C22.8026 0.334239 16.3295 0.334239 11.0453 2.99728C10.5169 3.26359 10.2527 3.66304 10.2527 4.0625L12.8948 15.913C13.0269 16.5788 12.6306 17.3777 11.8379 17.5109C11.7058 17.5109 11.7058 17.5109 11.5737 17.5109C10.9132 17.5109 10.3848 17.1114 10.2527 16.4457L8.27111 7.52446C5.3648 10.587 3.64745 14.4484 3.64745 18.8424V20.9728L1.40167 23.2364C1.00535 23.6359 0.873248 24.1685 1.13746 24.7011C1.26956 25.2337 1.79798 25.5 2.3264 25.5H36.6736C37.202 25.5 37.7304 25.2337 37.8625 24.7011C38.1268 24.1685 37.9946 23.6359 37.5983 23.2364Z" fill="white" fill-opacity="0.01" stroke="#222222" stroke-opacity="0.3"/>
<path d="M24.6862 28.1297C24.8191 28.5187 24.8191 29.0374 24.8191 29.4264C24.8191 32.2793 22.4255 34.6135 19.5 34.6135C16.5745 34.6135 14.1809 32.2793 14.1809 29.4264C14.1809 29.0374 14.3138 28.5187 14.3138 28.1297H7.13298C7.13298 28.5187 7 29.0374 7 29.4264C7 30.3342 7.13298 31.2419 7.39894 32.2793C7.53192 32.9277 8.19681 33.3167 8.8617 33.187C9.65957 33.0574 10.4574 33.4464 10.9894 34.2244C11.5213 35.0025 11.3883 35.7805 10.8564 36.4289C10.4574 36.9476 10.4574 37.7257 10.9894 38.1147C12.4521 39.4115 14.1809 40.4489 16.0426 40.9676C16.7074 41.0973 17.3723 40.8379 17.6383 40.1895C17.9043 39.4115 18.7021 38.8928 19.5 38.8928C20.2979 38.8928 21.0957 39.4115 21.3617 40.1895C21.6277 40.7082 22.0266 40.9676 22.5585 40.9676C22.6915 40.9676 22.8245 40.9676 22.9574 40.9676C24.8191 40.4489 26.5479 39.4115 28.0106 38.1147C28.5426 37.596 28.5426 36.9476 28.1436 36.4289C27.6117 35.7805 27.6117 34.8728 28.0106 34.2244C28.4096 33.5761 29.2074 33.0574 30.1383 33.187C30.8032 33.3167 31.4681 32.798 31.6011 32.1496C31.867 31.2419 32 30.2045 32 29.2968C32 28.9077 32 28.389 31.867 28H24.6862V28.1297Z" fill="white" fill-opacity="0.01" stroke="#222222" stroke-opacity="0.3"/>
</svg>
