<svg width="30" height="30" viewBox="0 0 30 30" fill="none" xmlns="http://www.w3.org/2000/svg">
<path fill-rule="evenodd" clip-rule="evenodd" d="M15 30C6.71575 30 0 23.2842 0 15C0 6.71575 6.71575 0 15 0C23.2842 0 30 6.71575 30 15C30 23.2842 23.2842 30 15 30ZM15.4944 23.3453C20.4122 23.3433 24.4119 19.3427 24.4138 14.4259C24.4148 12.0427 23.4879 9.80175 21.8039 8.11588C20.1199 6.42994 17.8804 5.50103 15.4943 5.5C10.578 5.5 6.57675 9.50106 6.57475 14.4189C6.57412 15.9909 6.98481 17.5253 7.76537 18.878L6.5 23.5L11.2283 22.2597C12.5311 22.9703 13.9979 23.3448 15.4908 23.3453H15.4944Z" fill="#222222"/>
<path fill-rule="evenodd" clip-rule="evenodd" d="M11.4059 20.7925L8.56735 21.5368L9.32502 18.7702L9.14672 18.4865C8.39594 17.2929 7.99943 15.9133 8 14.4966C8.00164 10.363 11.3661 7 15.5031 7C17.5063 7.0007 19.3894 7.78154 20.8054 9.19868C22.2214 10.6158 23.0008 12.4994 23 14.5027C22.9983 18.6367 19.6339 22 15.5001 22H15.4971C14.1513 21.9994 12.8313 21.638 11.6798 20.955L11.4059 20.7925ZM20.0461 16.6482C19.9897 16.5542 19.8394 16.4978 19.614 16.3849C19.3885 16.2721 18.28 15.727 18.0733 15.6517C17.8667 15.5765 17.7163 15.5389 17.5661 15.7644C17.4158 15.9901 16.9837 16.4978 16.8521 16.6482C16.7206 16.7986 16.5891 16.8174 16.3637 16.7046C16.1382 16.5918 15.4117 16.3538 14.5506 15.5859C13.8803 14.9883 13.4277 14.2503 13.2962 14.0246C13.1647 13.799 13.2823 13.677 13.3951 13.5646C13.4965 13.4636 13.6206 13.3013 13.7333 13.1698C13.8461 13.0382 13.8836 12.9441 13.9587 12.7938C14.0339 12.6433 13.9964 12.5117 13.94 12.3989C13.8836 12.2861 13.4327 11.1767 13.2448 10.7254C13.0618 10.2859 12.8759 10.3455 12.7375 10.3385C12.6061 10.332 12.4557 10.3306 12.3054 10.3306C12.1551 10.3306 11.9108 10.3869 11.7042 10.6126C11.4975 10.8382 10.915 11.3835 10.915 12.4928C10.915 13.6022 11.723 14.6739 11.8357 14.8244C11.9484 14.9748 13.4255 17.2513 15.6873 18.2276C16.2252 18.4598 16.6451 18.5985 16.9727 18.7023C17.5128 18.8739 18.0043 18.8497 18.3927 18.7916C18.826 18.727 19.7266 18.2465 19.9146 17.72C20.1024 17.1935 20.1024 16.7422 20.0461 16.6482Z" fill="#222222"/>
</svg>
