<?xml version="1.0" standalone="no"?>
<!DOCTYPE svg PUBLIC "-//W3C//DTD SVG 20010904//EN"
 "http://www.w3.org/TR/2001/REC-SVG-20010904/DTD/svg10.dtd">
<svg version="1.0" xmlns="http://www.w3.org/2000/svg"
 width="1421.000000pt" height="1285.000000pt" viewBox="0 0 1421.000000 1285.000000"
 preserveAspectRatio="xMidYMid meet">
<metadata>
Created by potrace 1.16, written by Peter Selinger 2001-2019
</metadata>
<g transform="translate(0.000000,1285.000000) scale(0.100000,-0.100000)"
fill="#000000" stroke="none">
<path d="M10960 12674 l-1225 -164 -200 5 c-361 8 -650 44 -1460 180 -308 52
-609 101 -670 109 -324 44 -465 32 -1046 -94 -818 -178 -1106 -220 -1496 -220
-183 0 -263 8 -1525 150 -733 82 -1345 152 -1359 154 -25 5 -43 -19 -305 -392
-533 -759 -762 -1120 -989 -1556 -353 -678 -564 -1345 -645 -2031 -48 -417
-51 -1325 -5 -1735 122 -1085 598 -2300 1340 -3420 381 -575 790 -1058 1150
-1358 423 -353 1100 -817 1755 -1204 995 -587 1827 -947 2460 -1064 149 -28
466 -26 630 4 556 102 1150 314 1855 662 1181 583 2323 1385 2920 2050 1013
1129 1781 2724 1994 4140 79 524 93 1394 31 1925 -100 851 -384 1629 -928
2540 -131 221 -282 451 -630 963 l-356 522 -35 -1 c-20 -1 -587 -75 -1261
-165z m-3560 -960 c166 -11 352 -59 513 -129 400 -176 663 -500 757 -934 32
-147 43 -298 37 -524 -4 -184 -8 -225 -30 -308 -55 -209 -132 -345 -282 -494
-55 -56 -134 -123 -175 -150 -552 -364 -1335 -307 -1681 123 -71 88 -139 225
-171 342 -20 73 -23 109 -23 255 0 194 10 243 75 383 148 315 505 532 875 532
299 0 508 -139 569 -376 22 -86 22 -334 0 -423 -37 -148 -138 -281 -258 -340
-246 -121 -507 -9 -594 254 -11 33 -23 80 -27 105 l-7 45 64 -62 c197 -191
391 -226 512 -93 71 79 85 223 33 326 -35 69 -122 147 -195 174 -134 50 -298
53 -387 8 -140 -73 -215 -246 -215 -495 1 -123 10 -174 46 -248 99 -201 352
-320 643 -302 350 22 618 218 677 497 19 90 14 395 -11 581 -74 563 -335 809
-865 811 -215 1 -387 -41 -604 -147 -464 -227 -813 -649 -887 -1071 -26 -149
3 -501 60 -721 99 -385 317 -738 606 -982 237 -200 546 -350 860 -415 292 -60
613 -62 870 -5 48 10 476 125 503 134 46 16 -98 -127 -190 -187 -313 -208
-835 -304 -1268 -233 -468 77 -943 326 -1315 691 -330 324 -554 718 -641 1129
-35 162 -43 435 -20 610 48 359 174 659 390 924 334 412 875 683 1436 721 113
7 150 7 320 -6z m-2590 -4671 c0 -19 -5 -23 -34 -23 -67 0 -66 4 -66 -349 0
-335 1 -341 46 -341 36 0 54 -11 54 -31 0 -18 -10 -19 -185 -19 -175 0 -185 1
-185 19 0 21 19 31 61 31 22 0 30 5 33 23 8 37 14 435 8 545 l-5 102 -167 0
-167 0 -7 -37 c-8 -50 -8 -503 0 -571 7 -56 2 -52 82 -68 14 -3 22 -12 22 -24
0 -19 -7 -20 -185 -20 -178 0 -185 1 -185 20 0 19 11 24 65 32 31 5 36 61 33
376 -3 322 -1 312 -65 312 -27 0 -33 4 -33 23 l0 22 440 0 440 0 0 -22z m490
-235 c54 -16 100 -56 123 -107 17 -37 22 -66 22 -141 0 -84 -4 -102 -29 -153
-47 -96 -123 -138 -251 -138 -120 0 -191 37 -238 125 -19 35 -22 57 -22 151 0
119 14 164 67 211 73 67 208 88 328 52z m1222 -33 c56 42 64 45 122 45 168 -1
252 -132 200 -311 -21 -73 -52 -110 -146 -180 -74 -55 -84 -59 -133 -59 -30 0
-65 4 -79 10 l-26 10 1 -98 c1 -134 5 -145 57 -155 32 -6 42 -13 42 -28 0 -18
-8 -19 -165 -19 -155 0 -165 1 -165 19 0 14 10 21 38 28 35 8 37 11 44 58 8
63 10 582 2 612 -5 17 -15 23 -43 25 -28 2 -37 8 -39 24 -3 19 5 22 74 33 42
7 93 19 113 25 l36 13 3 -48 3 -48 61 44z m797 25 c62 -32 65 -43 71 -265 l5
-200 30 -5 c21 -4 31 -11 33 -28 3 -22 2 -22 -105 -22 l-109 0 4 42 4 41 -61
-47 c-54 -42 -67 -47 -111 -48 -90 0 -137 57 -127 155 8 89 65 131 215 163
l84 18 -6 40 c-9 59 -52 96 -111 96 -45 0 -66 -13 -91 -55 -17 -30 -44 -12
-44 29 0 32 5 37 57 67 31 18 73 36 93 40 50 11 127 1 169 -21z m582 20 c29
-6 56 -14 60 -18 4 -4 2 -45 -5 -92 -11 -76 -14 -85 -34 -88 -17 -3 -22 2 -22
20 -1 68 -35 98 -115 98 -83 0 -112 -55 -103 -189 6 -80 33 -135 84 -170 40
-28 118 -39 162 -23 38 13 43 8 31 -28 -12 -32 -43 -48 -115 -58 -115 -17
-219 20 -271 96 -29 44 -47 134 -39 201 10 85 40 128 129 188 107 72 141 81
238 63z m1216 -17 c63 -29 67 -47 73 -268 l5 -200 30 -5 c21 -4 31 -11 33 -28
3 -22 1 -22 -102 -22 l-106 0 0 41 0 40 -60 -46 c-53 -41 -66 -46 -110 -47
-90 0 -137 57 -127 155 8 89 65 131 215 163 l84 18 -5 40 c-8 58 -52 96 -112
96 -45 0 -66 -13 -91 -55 -17 -30 -44 -12 -44 29 0 32 5 37 57 67 31 18 73 36
93 40 46 10 127 1 167 -18z m-3277 -7 c0 -20 -7 -26 -37 -33 l-38 -9 -3 -94
-3 -95 123 123 123 122 78 0 c69 0 77 -2 77 -19 0 -15 -10 -21 -42 -26 -45 -8
-69 -22 -159 -102 l-57 -50 119 -134 c65 -74 130 -138 144 -143 17 -7 25 -17
25 -33 0 -22 -2 -23 -98 -23 l-98 0 -62 78 c-33 42 -86 102 -116 132 l-56 54
0 -102 c0 -73 4 -104 13 -106 6 -3 24 -7 40 -10 18 -4 27 -13 27 -26 0 -19 -7
-20 -155 -20 -148 0 -155 1 -155 20 0 13 9 22 28 26 15 3 33 7 40 10 9 2 12
53 12 208 0 193 -1 206 -19 216 -11 5 -29 10 -40 10 -14 0 -21 6 -21 20 0 18
8 20 153 23 83 1 153 4 155 5 1 1 2 -9 2 -22z m2510 -3 c0 -16 -9 -23 -37 -30
l-38 -9 -3 -87 c-3 -108 -7 -109 137 37 l104 106 78 0 c72 0 79 -2 79 -19 0
-16 -10 -21 -46 -27 -44 -6 -94 -41 -202 -139 -10 -9 12 -40 109 -148 70 -79
131 -140 145 -143 17 -4 24 -13 24 -30 0 -24 -1 -24 -99 -24 l-99 0 -75 93
c-41 50 -94 110 -116 132 l-41 39 0 -102 c0 -73 4 -104 13 -106 6 -3 24 -7 40
-10 18 -4 27 -13 27 -26 0 -19 -7 -20 -155 -20 -148 0 -155 1 -155 20 0 13 9
22 28 26 15 3 33 7 40 10 10 3 12 50 10 211 l-3 208 -37 9 c-29 7 -38 15 -38
30 0 20 5 21 155 21 152 0 155 0 155 -22z m1570 -1 c0 -13 -11 -21 -37 -28
l-38 -9 -3 -165 -2 -165 51 70 c28 39 87 125 132 193 l81 122 103 0 c93 0 103
-2 103 -18 0 -13 -11 -21 -37 -28 l-38 -9 -3 -208 c-2 -161 0 -208 10 -211 7
-3 25 -7 41 -10 18 -4 27 -13 27 -26 0 -19 -7 -20 -156 -20 l-155 0 3 23 c2
17 11 23 38 27 l35 5 3 175 c1 99 -1 170 -6 165 -5 -6 -43 -59 -84 -120 -105
-153 -196 -269 -216 -277 -9 -4 -32 -7 -49 -7 l-33 -1 0 244 0 244 -40 7 c-30
5 -40 11 -40 26 0 18 9 19 155 19 143 0 155 -1 155 -18z m-5213 -1374 c24 -11
52 -32 62 -47 25 -35 44 -107 39 -152 -4 -43 -17 -46 -200 -48 -136 -1 -138
-1 -138 -23 1 -33 25 -96 47 -120 25 -29 91 -58 134 -58 19 0 57 7 83 16 26 9
50 14 53 10 3 -3 0 -19 -7 -35 -28 -69 -217 -97 -325 -47 -61 28 -108 84 -126
150 -17 61 -7 194 17 242 24 46 116 112 183 130 56 16 122 9 178 -18z m601 11
c26 -10 26 2 6 -145 -6 -39 -9 -45 -28 -42 -16 2 -22 11 -24 39 -4 50 -31 71
-95 77 -65 5 -101 -19 -118 -81 -15 -55 -5 -156 20 -206 41 -80 139 -121 222
-92 39 13 42 11 33 -24 -10 -41 -75 -66 -171 -66 -104 0 -173 34 -218 105 -28
47 -30 55 -30 150 0 138 13 162 123 234 47 30 99 59 116 63 35 9 127 2 164
-12z m1050 -6 c62 -30 66 -45 72 -267 l5 -201 30 -5 c21 -4 31 -11 33 -28 3
-22 1 -22 -102 -22 l-106 0 0 41 0 40 -60 -46 c-53 -41 -66 -46 -110 -47 -90
0 -137 57 -127 155 8 88 54 124 208 160 l91 22 -5 40 c-8 57 -52 95 -112 95
-47 0 -85 -25 -85 -56 0 -10 -7 -14 -22 -12 -18 2 -24 10 -26 39 -3 35 -1 38
55 70 31 18 73 36 93 40 47 10 127 1 168 -18z m1936 -1 c16 -9 38 -30 50 -45
20 -27 21 -40 19 -203 -1 -96 2 -185 7 -198 6 -17 18 -26 37 -28 20 -2 29 -9
31 -25 3 -23 2 -23 -107 -23 l-111 0 0 35 c0 19 -2 35 -5 35 -3 0 -30 -18 -59
-40 -44 -33 -61 -40 -99 -40 -58 0 -89 14 -110 50 -22 36 -22 131 -1 171 19
37 87 70 197 95 73 17 77 20 77 45 0 69 -43 109 -119 109 -41 0 -65 -16 -76
-50 -4 -11 -15 -20 -26 -20 -17 0 -20 6 -17 43 3 40 6 44 57 71 30 16 69 33
85 37 44 11 136 0 170 -19z m-4464 -22 c0 -22 3 -40 6 -40 3 0 26 17 51 38 45
36 48 37 128 37 102 0 142 -23 182 -103 23 -46 25 -61 21 -130 -7 -117 -36
-161 -177 -270 -53 -41 -73 -47 -146 -42 -16 1 -38 6 -48 12 -17 8 -17 1 -15
-114 l3 -122 43 -9 c32 -6 42 -13 42 -28 0 -18 -8 -19 -160 -19 -150 0 -160 1
-160 19 0 20 18 31 51 31 11 0 21 9 24 23 3 12 4 166 3 342 l-3 320 -37 3
c-32 3 -38 7 -38 27 0 20 6 24 49 30 27 4 71 13 98 20 79 22 83 20 83 -25z
m2117 27 c2 -2 0 -36 -3 -76 -6 -60 -10 -71 -25 -71 -15 0 -19 8 -19 40 0 49
-20 60 -111 60 l-59 0 0 -202 c0 -112 4 -208 8 -214 4 -6 24 -14 45 -18 28 -5
37 -12 37 -26 0 -19 -8 -20 -160 -20 -151 0 -160 1 -160 19 0 15 10 21 40 26
37 6 39 9 45 48 3 23 5 119 3 212 l-3 170 -40 3 c-22 2 -59 1 -82 -3 -41 -6
-42 -7 -45 -48 -2 -34 -7 -42 -23 -42 -18 0 -20 8 -23 64 -2 35 -1 69 1 75 3
8 88 10 287 9 156 -1 284 -4 287 -6z m1074 -6 c68 -22 99 -79 74 -137 -15 -38
-47 -61 -107 -79 l-43 -13 30 -6 c80 -18 106 -29 125 -53 44 -56 38 -107 -18
-164 -58 -57 -113 -69 -319 -69 -100 0 -173 4 -173 9 0 5 12 19 26 30 26 20
27 25 32 154 2 73 1 168 -3 210 l-7 77 -39 6 c-28 5 -39 12 -39 24 0 9 2 19 4
21 10 10 424 1 457 -10z m419 -21 c0 -22 3 -40 6 -40 4 0 28 17 53 38 44 36
48 37 126 37 70 0 87 -4 117 -24 60 -41 82 -84 86 -166 5 -96 -16 -170 -63
-218 -66 -67 -166 -137 -199 -138 -52 -2 -90 3 -108 12 -17 9 -18 1 -18 -103
0 -62 4 -118 8 -124 4 -6 26 -15 50 -19 32 -5 42 -11 42 -26 0 -18 -9 -19
-165 -19 -155 0 -165 1 -165 19 0 20 18 31 50 31 10 0 22 9 25 20 10 30 8 651
-2 660 -4 5 -21 10 -38 12 -22 2 -31 9 -33 24 -3 19 3 23 47 29 27 4 71 13 98
20 79 22 83 20 83 -25z m1370 14 c0 -15 -9 -23 -37 -30 l-38 -9 -5 -105 c-3
-58 -3 -153 -2 -212 l4 -108 114 0 114 0 -2 212 -3 212 -37 9 c-29 7 -38 14
-38 30 0 22 3 22 152 20 146 -2 153 -3 156 -22 3 -16 -2 -21 -20 -21 -13 0
-32 -6 -41 -13 -16 -11 -17 -33 -15 -217 l3 -205 49 -9 48 -10 -6 -44 c-3 -25
-6 -67 -6 -93 0 -48 -1 -49 -30 -49 -30 0 -30 0 -30 60 0 51 -3 61 -22 72 -17
10 -102 14 -321 16 l-298 3 3 22 c2 17 11 23 35 25 24 2 34 9 38 25 3 12 4
108 3 212 l-3 190 -37 9 c-29 7 -38 15 -38 30 0 20 5 21 155 21 150 0 155 -1
155 -21z m1818 -3 c2 -14 -6 -20 -37 -25 l-40 -6 -3 -97 c-5 -170 2 -324 15
-328 7 -2 24 -6 40 -9 18 -4 27 -13 27 -26 0 -19 -7 -20 -160 -20 -153 0 -160
1 -160 20 0 19 11 24 65 32 18 3 20 12 23 96 l3 93 -28 -3 c-22 -2 -46 -27
-117 -120 l-90 -118 -88 0 c-82 0 -88 1 -88 20 0 12 9 24 23 29 26 11 54 40
131 141 l58 74 -48 16 c-64 20 -98 68 -90 123 8 49 24 74 63 98 48 30 101 35
308 32 175 -4 190 -5 193 -22z m-1058 0 c0 -15 -10 -21 -39 -26 -39 -6 -40 -7
-46 -58 -3 -29 -5 -104 -3 -167 l3 -115 96 135 c52 74 111 161 130 192 l34 57
108 1 c98 0 107 -2 107 -19 0 -14 -10 -20 -39 -25 -37 -6 -38 -8 -45 -52 -8
-60 -8 -263 0 -331 6 -47 10 -53 30 -53 35 0 54 -11 54 -31 0 -18 -10 -19
-160 -19 -150 0 -160 1 -160 19 0 20 18 31 50 31 33 0 40 33 40 202 l0 163
-32 -47 c-250 -358 -267 -378 -325 -378 l-39 0 4 219 c3 121 2 231 -2 245 -5
19 -15 27 -41 32 -25 4 -35 11 -35 25 0 18 10 19 155 19 146 0 155 -1 155 -19z
m-4563 -1098 c9 -24 -33 -96 -70 -118 -27 -17 -49 -19 -145 -17 -88 2 -121 -1
-148 -14 -40 -19 -80 -81 -89 -139 -3 -22 -8 -50 -11 -62 -3 -17 6 -12 45 27
57 57 104 74 209 73 100 -1 171 -35 210 -101 25 -44 27 -55 27 -162 0 -99 -3
-121 -22 -155 -50 -93 -130 -136 -254 -136 -68 0 -90 4 -135 26 -97 47 -124
110 -131 307 -9 214 22 357 89 413 45 38 99 48 223 41 99 -6 113 -5 140 13 38
24 54 26 62 4z m4727 -21 c-2 -42 -26 -77 -67 -99 -26 -14 -53 -17 -144 -15
-127 3 -155 -6 -197 -60 -26 -36 -46 -96 -46 -143 l0 -30 30 36 c78 95 280
112 386 33 55 -41 79 -104 79 -214 0 -84 -4 -102 -28 -152 -46 -95 -125 -138
-251 -138 -99 0 -144 15 -192 64 -53 52 -73 116 -81 256 -10 190 22 354 83
415 47 47 102 59 237 50 105 -6 114 -5 137 14 35 29 55 23 54 -17z m1121 -61
c28 -10 78 -25 113 -31 34 -7 62 -16 62 -20 0 -12 -50 -30 -85 -30 -62 0 -235
23 -235 31 0 7 78 66 90 68 3 1 28 -8 55 -18z m-6575 -191 c45 -23 74 -56 89
-99 12 -38 15 -140 4 -142 -5 -1 -80 -4 -168 -8 l-160 -6 3 -30 c5 -57 44
-117 91 -142 51 -27 102 -29 166 -8 56 20 70 13 50 -24 -22 -43 -77 -64 -178
-69 -136 -7 -214 34 -260 138 -24 53 -29 193 -9 252 21 60 121 137 207 159 42
11 123 0 165 -21z m1250 -4 c52 -26 85 -82 95 -161 9 -79 9 -79 -175 -84
l-160 -3 0 -27 c1 -35 32 -101 61 -128 50 -46 121 -55 201 -26 55 20 68 13 48
-25 -23 -42 -83 -66 -173 -70 -108 -6 -161 11 -217 68 -59 58 -74 109 -68 228
5 110 22 143 106 199 98 66 188 76 282 29z m3431 18 c65 -19 119 -71 137 -131
17 -57 15 -192 -3 -244 -36 -100 -118 -158 -236 -167 -157 -11 -261 60 -284
193 -13 79 -10 76 -78 73 l-62 -3 -3 -60 c-1 -33 1 -78 6 -100 7 -35 12 -40
45 -48 27 -7 37 -14 37 -28 0 -18 -9 -19 -155 -19 -145 0 -155 1 -155 19 0 20
18 31 50 31 10 0 21 7 24 16 8 20 8 377 0 398 -3 8 -21 18 -40 22 -26 5 -34
11 -34 28 0 21 3 21 155 21 152 0 155 0 155 -22 0 -17 -8 -23 -39 -28 -44 -7
-51 -24 -51 -121 l0 -54 65 0 c44 0 67 4 69 13 2 6 10 33 16 60 18 67 71 124
140 147 68 24 168 25 241 4z m1312 -5 c58 -15 114 -72 132 -132 33 -110 12
-249 -47 -321 -49 -60 -115 -86 -218 -86 -170 0 -253 75 -267 240 -11 129 29
227 111 275 75 44 180 53 289 24z m-6959 -74 c19 -44 52 -118 74 -165 l39 -85
23 45 c13 25 47 98 75 163 l53 118 116 2 c112 2 116 1 116 -19 0 -17 -8 -23
-34 -28 -19 -4 -37 -14 -40 -22 -8 -21 -8 -378 0 -398 3 -9 14 -16 24 -16 32
0 50 -11 50 -31 0 -18 -10 -19 -155 -19 -148 0 -155 1 -155 20 0 13 9 22 28
26 15 3 32 7 38 9 6 2 14 21 17 42 10 56 8 329 -1 318 -9 -10 -163 -348 -181
-397 -6 -16 -16 -28 -24 -28 -7 0 -54 92 -106 208 -51 114 -97 211 -102 217
-10 10 -10 -194 0 -295 l6 -64 38 -9 c27 -7 37 -14 37 -28 0 -18 -9 -19 -110
-19 -101 0 -110 2 -110 19 0 20 18 31 51 31 27 0 30 23 27 235 l-3 190 -37 9
c-29 7 -38 15 -38 30 0 20 5 21 125 21 l125 0 34 -80z m3044 55 c3 -15 -2 -20
-18 -20 -12 0 -30 -5 -41 -10 -18 -10 -19 -23 -19 -216 0 -155 3 -206 13 -208
6 -3 24 -7 40 -10 18 -4 27 -13 27 -26 0 -19 -7 -20 -156 -20 l-155 0 3 23 c2
17 11 23 38 27 l35 5 0 210 0 210 -96 3 -97 3 -7 -138 c-8 -153 -28 -233 -70
-289 -30 -39 -78 -64 -122 -64 -49 0 -56 12 -49 74 8 58 17 67 42 41 21 -21
77 -19 97 3 27 30 40 103 41 237 l1 130 -42 9 c-29 7 -43 15 -43 26 0 9 2 19
4 21 2 2 132 3 288 2 276 -2 283 -3 286 -23z m1780 2 c2 -15 -5 -21 -36 -26
l-39 -6 -5 -97 c-7 -140 2 -324 16 -328 6 -2 23 -6 39 -9 18 -4 27 -13 27 -26
0 -19 -7 -20 -160 -20 -150 0 -160 1 -160 19 0 21 19 31 56 31 33 0 35 15 32
235 l-3 190 -97 3 -98 3 0 -33 c0 -18 -5 -88 -10 -156 -7 -104 -13 -133 -38
-186 -41 -88 -107 -129 -177 -112 -22 6 -25 11 -25 54 0 65 10 79 43 57 39
-25 87 -16 109 20 21 36 41 193 36 285 l-3 65 -42 9 c-34 8 -43 14 -43 30 0
21 3 21 287 19 274 -2 288 -3 291 -21z m-1398 -1 c0 -15 -10 -21 -40 -26 -37
-6 -39 -9 -45 -48 -3 -23 -5 -98 -3 -167 l3 -125 85 120 c47 66 106 152 130
192 l45 72 103 1 c93 0 102 -2 102 -19 0 -13 -10 -21 -34 -25 -29 -6 -34 -11
-40 -44 -8 -49 -8 -286 0 -345 6 -43 9 -46 38 -49 23 -2 32 -8 34 -25 l3 -23
-155 0 c-146 0 -156 1 -156 19 0 20 18 31 50 31 35 0 41 33 38 201 l-3 162
-59 -89 c-87 -131 -224 -312 -246 -324 -10 -5 -34 -10 -53 -10 l-34 0 5 219
c3 120 2 230 -2 244 -5 20 -15 28 -41 33 -25 4 -35 11 -35 25 0 18 10 19 155
19 146 0 155 -1 155 -19z m4070 1 c0 -13 -11 -21 -37 -28 l-38 -9 -3 -165 -2
-165 51 70 c28 39 87 125 132 193 l81 122 103 0 c93 0 103 -2 103 -18 0 -13
-11 -21 -37 -28 l-38 -9 -3 -208 c-2 -161 0 -208 10 -211 7 -3 25 -7 41 -10
18 -4 27 -13 27 -26 0 -19 -7 -20 -156 -20 l-155 0 3 23 c2 17 11 23 38 27
l35 5 3 175 c1 99 -1 170 -6 165 -5 -6 -43 -59 -84 -120 -105 -153 -196 -269
-216 -277 -9 -4 -32 -7 -49 -7 l-33 -1 0 244 0 244 -40 7 c-30 5 -40 11 -40
26 0 18 9 19 155 19 143 0 155 -1 155 -18z m-6312 -1353 c26 -10 26 2 6 -145
-6 -39 -9 -45 -28 -42 -16 2 -22 11 -24 39 -4 50 -31 71 -95 77 -65 5 -101
-19 -118 -81 -15 -55 -5 -156 20 -206 41 -80 139 -121 222 -92 39 13 42 11 33
-24 -10 -41 -75 -66 -171 -66 -104 0 -173 34 -218 105 -28 47 -30 55 -30 150
0 138 13 162 123 234 47 30 99 59 116 63 35 9 127 2 164 -12z m1232 -1 c100
-30 144 -104 144 -243 0 -98 -12 -144 -48 -194 -54 -72 -121 -102 -231 -102
-120 0 -191 37 -238 125 -19 35 -22 57 -22 151 0 94 3 116 22 151 50 94 147
138 278 128 33 -3 76 -10 95 -16z m2405 -1 c52 -15 111 -75 126 -129 17 -59
14 -193 -5 -246 -28 -77 -87 -133 -160 -153 -58 -16 -179 -12 -223 6 -88 37
-134 112 -141 229 -11 178 53 275 201 306 48 10 143 4 202 -13z m603 12 l64
-11 -6 -62 c-13 -116 -16 -127 -40 -124 -16 2 -22 11 -24 40 -4 52 -39 78
-104 78 -41 0 -54 -5 -78 -28 -35 -35 -48 -114 -31 -192 15 -70 34 -104 78
-137 31 -24 46 -28 97 -28 34 0 71 4 84 8 18 7 22 5 22 -10 0 -54 -66 -85
-183 -84 -97 0 -169 36 -211 104 -26 42 -30 61 -34 136 -4 74 -1 95 19 140 20
48 32 60 104 107 73 47 125 71 164 73 8 1 43 -4 79 -10z m-3490 -27 c2 -15 -5
-21 -36 -26 -36 -5 -40 -9 -46 -43 -8 -50 -8 -287 0 -347 6 -39 10 -46 30 -46
35 0 54 -11 54 -31 0 -18 -10 -19 -160 -19 -150 0 -160 1 -160 19 0 20 18 31
50 31 11 0 24 9 30 19 11 21 14 368 4 395 -5 13 -24 16 -100 16 -52 0 -94 -1
-94 -2 0 -2 -5 -68 -9 -148 -11 -167 -32 -241 -87 -295 -36 -36 -86 -52 -129
-41 -23 6 -25 11 -25 61 0 61 10 73 42 51 12 -9 35 -16 50 -16 60 0 81 56 94
246 8 128 4 142 -47 150 -31 5 -39 11 -39 28 0 21 0 21 287 19 274 -2 288 -3
291 -21z m2022 -1 c0 -14 -10 -20 -39 -25 -46 -7 -51 -17 -51 -107 l0 -69 120
0 120 0 0 73 c0 39 -4 77 -8 84 -4 6 -24 14 -45 18 -30 6 -37 11 -35 27 3 18
13 19 156 21 149 2 152 2 152 -19 0 -17 -8 -23 -34 -28 -31 -6 -34 -10 -40
-53 -8 -59 -8 -262 0 -330 6 -49 8 -52 38 -55 23 -2 32 -8 34 -25 l3 -23 -155
0 c-149 0 -156 1 -156 20 0 15 9 21 39 26 47 7 51 17 51 125 0 90 1 89 -120
89 -121 0 -120 1 -120 -89 0 -108 4 -118 51 -125 30 -5 39 -11 39 -26 0 -19
-7 -20 -160 -20 -150 0 -160 1 -160 19 0 20 19 31 54 31 20 0 24 7 30 46 8 60
8 278 0 338 -7 44 -8 46 -45 52 -29 5 -39 11 -39 25 0 17 12 19 153 21 83 2
155 2 160 0 4 -2 7 -11 7 -21z m2148 -2 c2 -13 1 -47 -3 -76 -5 -43 -10 -54
-23 -51 -12 2 -18 15 -20 41 -4 47 -30 59 -111 55 l-56 -3 -3 -180 c-4 -235
-3 -241 48 -249 31 -5 40 -11 40 -26 0 -19 -7 -20 -160 -20 -151 0 -160 1
-160 19 0 15 10 21 40 26 50 9 52 15 48 250 l-3 180 -40 3 c-22 2 -59 1 -82
-3 -42 -6 -43 -7 -43 -46 0 -26 -5 -42 -15 -46 -9 -3 -18 -3 -21 0 -8 8 -18
123 -12 139 4 10 62 13 289 11 l284 -2 3 -22z m-3241 -57 c40 -44 95 -98 123
-122 l51 -43 -3 94 -3 94 -37 9 c-27 7 -38 15 -38 28 0 17 12 18 155 18 146 0
155 -1 155 -19 0 -15 -10 -21 -40 -26 -34 -6 -40 -11 -45 -38 -4 -18 -5 -61
-3 -97 l3 -65 122 123 122 122 70 0 c63 0 71 -2 71 -19 0 -14 -10 -20 -44 -25
-35 -6 -58 -20 -123 -79 l-80 -72 27 -35 c79 -100 205 -236 226 -244 16 -7 24
-18 24 -33 0 -22 -2 -23 -92 -23 l-93 1 -45 67 c-47 69 -166 202 -181 202 -13
0 -11 -177 1 -201 6 -10 19 -19 30 -19 32 0 50 -11 50 -31 0 -18 -10 -19 -155
-19 -148 0 -155 1 -155 20 0 13 9 22 28 26 15 3 33 7 40 10 8 2 12 33 12 109
l0 107 -28 -23 c-38 -32 -126 -136 -168 -198 l-35 -51 -94 0 c-89 0 -95 1 -95
20 0 12 10 24 24 30 21 7 256 268 256 283 0 3 -36 37 -79 75 -61 54 -89 72
-120 77 -31 5 -41 11 -41 26 0 17 8 19 68 19 l68 0 71 -78z m3593 59 c0 -14
-10 -20 -40 -25 -23 -3 -43 -12 -46 -19 -2 -7 -3 -82 -2 -167 l3 -154 111 160
c62 87 119 174 128 192 l17 32 104 0 c96 0 105 -2 105 -19 0 -13 -10 -21 -34
-25 -19 -4 -37 -14 -40 -22 -8 -21 -8 -378 0 -398 3 -9 14 -16 24 -16 32 0 50
-11 50 -31 0 -18 -10 -19 -155 -19 -148 0 -155 1 -155 20 0 13 9 22 28 26 15
3 32 7 38 9 19 6 32 222 18 307 l-6 37 -100 -142 c-175 -249 -192 -267 -249
-267 l-40 0 7 168 c4 92 4 202 0 245 l-8 77 -39 6 c-29 5 -39 11 -39 25 0 18
10 19 160 19 150 0 160 -1 160 -19z"/>
<path d="M5107 6750 c-26 -20 -40 -55 -51 -121 -10 -55 10 -203 33 -246 43
-86 149 -82 185 7 19 48 22 192 5 272 -15 70 -53 108 -107 108 -24 0 -49 -8
-65 -20z"/>
<path d="M6545 6723 c-11 -3 -35 -16 -52 -30 l-33 -24 0 -132 c1 -88 5 -137
13 -147 25 -32 62 -50 105 -50 89 0 132 64 132 198 0 85 -17 133 -60 164 -28
20 -74 29 -105 21z"/>
<path d="M7175 6535 c-76 -27 -109 -101 -65 -145 25 -25 66 -25 108 0 31 19
32 21 32 90 0 79 -2 81 -75 55z"/>
<path d="M8975 6535 c-76 -27 -109 -101 -65 -145 25 -25 66 -25 108 0 31 19
32 21 32 90 0 79 -2 81 -75 55z"/>
<path d="M4544 5382 c-36 -5 -64 -45 -73 -101 -6 -38 -5 -54 4 -57 6 -3 50 -4
96 -2 l84 3 -1 48 c-1 75 -46 120 -110 109z"/>
<path d="M6215 5155 c-76 -27 -109 -101 -65 -145 25 -25 66 -25 108 0 31 19
32 21 32 90 0 79 -2 81 -75 55z"/>
<path d="M8152 5157 c-53 -17 -82 -50 -82 -95 0 -72 69 -97 129 -46 29 24 31
31 31 90 0 60 -1 64 -22 63 -13 -1 -38 -6 -56 -12z"/>
<path d="M3890 5335 c-69 -31 -70 -34 -70 -180 0 -124 1 -133 23 -152 35 -32
62 -43 107 -43 60 0 103 45 120 125 36 175 -57 305 -180 250z"/>
<path d="M6797 5373 c-4 -3 -7 -42 -7 -85 l0 -78 45 0 c51 0 99 20 109 45 15
39 6 83 -20 104 -26 21 -112 30 -127 14z"/>
<path d="M6798 5154 c-5 -4 -8 -52 -8 -106 l0 -98 54 0 c95 0 150 61 125 138
-6 18 -21 40 -34 48 -26 17 -126 30 -137 18z"/>
<path d="M7490 5328 l-45 -23 0 -150 0 -149 34 -23 c48 -32 110 -31 150 3 81
68 79 286 -3 339 -42 27 -87 28 -136 3z"/>
<path d="M10263 5370 c-12 -5 -26 -18 -32 -29 -12 -22 -15 -80 -5 -106 10 -26
59 -45 119 -45 l55 0 0 95 0 95 -57 -1 c-32 0 -68 -4 -80 -9z"/>
<path d="M4714 3999 c-40 -20 -58 -68 -62 -165 -8 -167 29 -258 110 -271 45
-7 80 13 105 60 22 41 24 219 4 290 -23 80 -91 117 -157 86z"/>
<path d="M9442 3994 c-52 -36 -75 -153 -53 -279 15 -85 33 -120 71 -140 54
-28 104 -14 136 38 27 45 28 250 1 320 -28 70 -101 99 -155 61z"/>
<path d="M4113 3998 c-42 -11 -62 -42 -70 -107 l-6 -51 97 0 96 0 0 45 c0 87
-47 132 -117 113z"/>
<path d="M5353 3998 c-39 -10 -61 -47 -65 -109 l-3 -44 95 0 95 0 -2 49 c-3
83 -49 123 -120 104z"/>
<path d="M8793 4005 c-54 -23 -68 -63 -68 -195 0 -127 12 -174 52 -214 19 -19
36 -26 65 -26 91 0 113 41 112 205 0 99 -4 128 -21 167 -29 64 -81 88 -140 63z"/>
<path d="M10089 3995 c-39 -21 -59 -81 -59 -180 0 -120 16 -183 55 -222 58
-58 139 -36 165 43 15 46 15 219 0 275 -23 84 -93 121 -161 84z"/>
<path d="M5542 2625 c-43 -31 -56 -73 -56 -175 0 -190 53 -280 149 -256 66 17
90 84 82 236 -5 106 -20 163 -50 189 -27 21 -98 25 -125 6z"/>
<path d="M7942 2625 c-44 -32 -56 -72 -56 -185 0 -132 21 -202 68 -231 37 -23
67 -24 105 -5 40 21 54 60 59 167 5 106 -15 211 -47 243 -26 25 -100 32 -129
11z"/>
</g>
</svg>
